Coordinates
version=1
nRows=17
nColumns=38
inDegrees=yes

Units are S.I. units (second, meters, Newtons, ...)
Angles are in degrees.

endheader
time	pelvis_tilt	pelvis_list	pelvis_rotation	pelvis_tx	pelvis_ty	pelvis_tz	hip_flexion_r	hip_adduction_r	hip_rotation_r	knee_angle_r	ankle_angle_r	subtalar_angle_r	mtp_angle_r	hip_flexion_l	hip_adduction_l	hip_rotation_l	knee_angle_l	ankle_angle_l	subtalar_angle_l	mtp_angle_l	lumbar_extension	lumbar_bending	lumbar_rotation	arm_flex_r	arm_add_r	arm_rot_r	elbow_flex_r	pro_sup_r	wrist_flex_r	wrist_dev_r	arm_flex_l	arm_add_l	arm_rot_l	elbow_flex_l	pro_sup_l	wrist_flex_l	wrist_dev_l
      1.25000000	     -0.15371967	     -5.98750794	      2.12952879	     -0.66743041	      0.90622456	     -0.25302060	     22.12822218	     10.13509857	     -5.47801103	    -27.84265849	     -0.75257179	     -7.20460998	      5.29845870	     -0.24375278	     -6.39692865	      2.63056098	    -54.64914128	    -18.70596818	      7.21207532	     25.17697178	     -4.48449165	      9.25820057	     -7.13810942	     -4.27783758	    -17.06435326	     18.70993706	     12.41227370	     86.51662706	      0.00000000	      0.00000000	      1.93657659	    -16.56868610	     16.82161065	     38.51820263	     86.51662706	      0.00000000	      0.00000000
      1.26000000	     -0.02254720	     -6.15677733	      2.48910075	     -0.65459807	      0.90786311	     -0.25303940	     20.92490930	     10.25890054	     -5.89200301	    -27.58666212	      0.43526664	     -6.52821156	      4.79246593	      1.68762376	     -6.46381632	      3.30038191	    -57.22118618	    -17.87163229	      5.82791272	     24.17677956	     -4.67179737	      9.51832930	     -7.00463085	     -3.93387772	    -17.12066977	     18.80009268	     12.91486240	     86.51662706	      0.00000000	      0.00000000	      1.96944392	    -16.32775062	     17.54537188	     37.53689910	     86.51662706	      0.00000000	      0.00000000
      1.27000000	      0.10805308	     -6.20648402	      2.86379861	     -0.64196323	      0.90961678	     -0.25310729	     19.64957187	     10.25276366	     -6.39330386	    -27.18868647	      1.52085884	     -5.77203905	      4.33339195	      3.63030081	     -6.33903158	      3.96041085	    -59.46202780	    -16.65508336	      4.50919480	     23.30306216	     -4.87234430	      9.63834243	     -6.85622404	     -3.56431718	    -17.17054728	     18.94177735	     13.43451031	     86.51662706	      0.00000000	      0.00000000	      2.05523849	    -16.10043018	     18.36709645	     36.42693716	     86.51662706	      0.00000000	      0.00000000
      1.28000000	      0.23147689	     -6.14202687	      3.21921080	     -0.62942540	      0.91145964	     -0.25314921	     18.31704871	     10.13974526	     -6.93776437	    -26.66864436	      2.49249863	     -4.96834948	      3.93155415	      5.55286991	     -6.03320988	      4.57974380	    -61.33370734	    -15.20659488	      3.33584095	     22.59612832	     -5.07381943	      9.61751213	     -6.67307184	     -3.17671827	    -17.21718132	     19.13351977	     13.97156409	     86.51662706	      0.00000000	      0.00000000	      2.16834405	    -15.89077282	     19.26123890	     35.21045644	     86.51662706	      0.00000000	      0.00000000
      1.29000000	      0.34187067	     -5.97447858	      3.52763620	     -0.61689098	      0.91338749	     -0.25312846	     16.94184266	      9.94394646	     -7.47232158	    -26.05071351	      3.35162314	     -4.15415949	      3.59275899	      7.42984012	     -5.57175258	      5.13118403	    -62.81526166	    -13.64877892	      2.35850072	     22.06694897	     -5.26514520	      9.46474423	     -6.43764038	     -2.77938414	    -17.26348127	     19.36815085	     14.52822392	     86.51662706	      0.00000000	      0.00000000	      2.28368067	    -15.70032071	     20.19872211	     33.91443661	     86.51662706	      0.00000000	      0.00000000
      1.30000000	      0.43327808	     -5.71896249	      3.77025624	     -0.60431791	      0.91538234	     -0.25303567	     15.53935151	      9.68856329	     -7.93971014	    -25.36086723	      4.10701115	     -3.36990055	      3.31781879	      9.24426369	     -4.99261956	      5.58891152	    -63.90018283	    -12.06736956	      1.59397603	     21.70031381	     -5.43761189	      9.19709487	     -6.13721140	     -2.37979937	    -17.31237167	     19.63370359	     15.10811970	     86.51662706	      0.00000000	      0.00000000	      2.37961263	    -15.52747823	     21.14909885	     32.56785728	     86.51662706	      0.00000000	      0.00000000
      1.31000000	      0.50049011	     -5.39359739	      3.93668698	     -0.59171801	      0.91739242	     -0.25286571	     14.12684041	      9.39461807	     -8.28522634	    -24.62386170	      4.77053378	     -2.65626270	      3.10283425	     10.98824656	     -4.34096865	      5.92897934	    -64.59280864	    -10.51321741	      1.02714954	     21.46023947	     -5.58527450	      8.83675251	     -5.76531340	     -1.98313041	    -17.36716287	     19.91486686	     15.71576677	     86.51662706	      0.00000000	      0.00000000	      2.43972458	    -15.36825289	     22.08300986	     31.19868817	     86.51662706	      0.00000000	      0.00000000
      1.32000000	      0.54033775	     -5.01824624	      4.02319916	     -0.57911965	      0.91934552	     -0.25260908	     12.72288663	      9.08083592	     -8.46446837	    -23.86095531	      5.35491744	     -2.04961173	      2.94016256	     12.66095740	     -3.66216573	      6.13235203	    -64.90481215	     -9.01173665	      0.61805645	     21.29687947	     -5.70500529	      8.40767597	     -5.32200050	     -1.59121244	    -17.43179302	     20.19475538	     16.35594803	     86.51662706	      0.00000000	      0.00000000	      2.45347408	    -15.21786895	     22.97457037	     29.83125917	     86.51662706	      0.00000000	      0.00000000
      1.33000000	      0.55204479	     -4.61228972	      4.03071613	     -0.56653081	      0.92117800	     -0.25225917	     11.34475249	      8.76420118	     -8.45067575	    -23.08856575	      5.87321052	     -1.57671824	      2.81984845	     14.26465165	     -2.99554934	      6.18892655	    -64.85264196	     -7.57485531	      0.31167452	     21.15416915	     -5.79653401	      7.93295176	     -4.81320604	     -1.20234738	    -17.51079781	     20.45672141	     17.03308181	     86.51662706	      0.00000000	      0.00000000	      2.41593744	    -15.07247848	     23.80331977	     28.48444487	     86.51662706	      0.00000000	      0.00000000
      1.34000000	      0.53700118	     -4.19262165	      3.96352377	     -0.55394101	      0.92284482	     -0.25181690	     10.00462856	      8.45990056	     -8.23993328	    -22.31743163	      6.33912154	     -1.24983593	      2.73120895	     15.80045391	     -2.37061264	      6.10059091	    -64.45563993	     -6.21120283	      0.04781803	     20.97735637	     -5.86251046	      7.43331978	     -4.24952360	     -0.81196709	    -17.60896338	     20.68596521	     17.75064985	     86.51662706	      0.00000000	      0.00000000	      2.32697272	    -14.93020243	     24.55544469	     27.17089055	     86.51662706	      0.00000000	      0.00000000
      1.35000000	      0.49895808	     -3.77324562	      3.82902805	     -0.54135558	      0.92430705	     -0.25129343	      8.70631844	      8.17989753	     -7.85271638	    -21.55202719	      6.76726670	     -1.06330893	      2.66426487	     17.26572896	     -1.80612034	      5.88201449	    -63.73401801	     -4.93221779	     -0.23085223	     20.71952134	     -5.90854022	      6.92686037	     -3.64479684	     -0.41394506	    -17.73070775	     20.87078052	     18.51076717	     86.51662706	      0.00000000	      0.00000000	      2.19010103	    -14.79117314	     25.22414240	     25.89727787	     86.51662706	      0.00000000	      0.00000000
      1.36000000	      0.44490435	     -3.36612712	      3.63824201	     -0.52880427	      0.92552298	     -0.25071272	      7.44353099	      7.93084311	     -7.33121144	    -20.79062360	      7.17266330	     -0.99277069	      2.61079141	     18.65377336	     -1.31170536	      5.55890734	    -62.70654927	     -3.75401988	     -0.57357342	     20.34629831	     -5.94305443	      6.42959418	     -3.01473882	     -0.00218105	    -17.87933804	     21.00335788	     19.31395106	     86.51662706	      0.00000000	      0.00000000	      2.01130064	    -14.65682518	     25.80917350	     24.66542843	     86.51662706	      0.00000000	      0.00000000
      1.37000000	      0.38549507	     -2.98210962	      3.40611243	     -0.51631000	      0.92645617	     -0.25010493	      6.20031542	      7.71322801	     -6.73315240	    -20.02670136	      7.56940033	     -0.99757636	      2.56488379	     19.95495346	     -0.89052763	      5.16420929	    -61.38893471	     -2.69632919	     -1.01873716	     19.83831126	     -5.97679168	      5.95617288	     -2.37561449	      0.42794279	    -18.05641928	     21.08013977	     20.15908460	     86.51662706	      0.00000000	      0.00000000	      1.79785128	    -14.52891453	     26.31576959	     23.47391048	     86.51662706	      0.00000000	      0.00000000
      1.38000000	      0.33371278	     -2.63107676	      3.15058817	     -0.50386433	      0.92709431	     -0.24948966	      4.95392215	      7.52307514	     -6.12355766	    -19.25183624	      7.96898392	     -1.02641415	      2.52305969	     21.15778462	     -0.54143679	      4.73318718	    -59.79400852	     -1.77991763	     -1.59279214	     19.19129713	     -6.02183743	      5.51974214	     -1.74297459	      0.87858671	    -18.26150512	     21.10177439	     21.04351060	     86.51662706	      0.00000000	      0.00000000	      1.55736190	    -14.40869209	     26.75311305	     22.31976882	     86.51662706	      0.00000000	      0.00000000
      1.39000000	      0.30240632	     -2.32099048	      2.89004650	     -0.49143850	      0.92745391	     -0.24887328	      3.68015545	      7.35529259	     -5.56549467	    -18.45933937	      8.37907388	     -1.02523351	      2.48401737	     22.24960213	     -0.26017392	      4.29880656	    -57.93380373	     -1.02334035	     -2.30991994	     18.41439817	     -6.09038271	      5.13094979	     -1.13046917	      1.34921589	    -18.49239749	     21.07274619	     21.96316741	     86.51662706	      0.00000000	      0.00000000	      1.29705873	    -14.29644302	     27.13262190	     21.20004074	     86.51662706	      0.00000000	      0.00000000
      1.40000000	      0.30235430	     -2.05651552	      2.64006144	     -0.47900787	      0.92755699	     -0.24826874	      2.36004414	      7.20647039	     -5.11104027	    -17.64762180	      8.80309913	     -0.94594975	      2.44820740	     23.21767073	     -0.04008584	      3.88839225	    -55.82221314	     -0.43896646	     -3.17191199	     17.52743105	     -6.19339835	      4.79679106	     -0.54884577	      1.83711729	    -18.74583134	     21.00076369	     22.91269582	     86.51662706	      0.00000000	      0.00000000	      1.02329125	    -14.19138473	     27.46627137	     20.11282726	     86.51662706	      0.00000000	      0.00000000
      1.41000000	      0.34118017	     -1.83871315	      2.41106804	     -0.46655370	      0.92740868	     -0.24770093	      0.98511945	      7.07571920	     -4.79424674	    -16.82238212	      9.24072634	     -0.75407505	      2.41735486	     24.05140958	      0.12724382	      3.52182467	    -53.47670810	     -0.02841879	     -4.16796911	     16.55789852	     -6.33931365	      4.51996075	     -0.00527068	      2.33839814	    -19.01822562	     20.89597149	     23.88548496	     86.51662706	      0.00000000	      0.00000000	      0.74117117	    -14.09183098	     27.76516410	     19.05782515	     86.51662706	      0.00000000	      0.00000000
